<svg xmlns="http://www.w3.org/2000/svg" version="1.1" xmlns:xlink="http://www.w3.org/1999/xlink" xmlns:svgjs="http://svgjs.com/svgjs" width="2000" height="2000"><svg width="2000" height="2000" viewBox="0 0 2000 2000" fill="none" xmlns="http://www.w3.org/2000/svg">
<rect width="2000" height="2000" rx="400" fill="#151515"></rect>
<path d="M1000 229.125C972.249 229.125 945.158 239.256 924.289 260.125L769.398 416.668C761.029 421.183 753.981 427.68 748.805 435.609L260.07 924.289C240.024 944.386 228.766 971.614 228.766 1000C228.766 1028.39 240.024 1055.61 260.07 1075.71L924.289 1739.93C944.443 1759.87 971.649 1771.05 1000 1771.05C1028.35 1771.05 1055.56 1759.87 1075.71 1739.93L1739.93 1075.71C1759.98 1055.61 1771.23 1028.39 1771.23 1000C1771.23 971.614 1759.98 944.386 1739.93 924.289L1075.66 260.07C1065.73 250.156 1053.92 242.315 1040.93 237.003C1027.95 231.69 1014.03 229.013 1000 229.125ZM1000 340.957L1659.04 1000L1000 1659.04L340.957 1000L796.985 544.027L893.344 640.387C890.871 649.931 889.704 659.767 889.875 669.625C889.875 710.261 912.01 745.116 944.938 764.277V1235.72C912.01 1254.88 889.875 1289.68 889.875 1330.38C889.875 1359.58 901.478 1387.59 922.13 1408.25C942.782 1428.9 970.793 1440.5 1000 1440.5C1029.21 1440.5 1057.22 1428.9 1077.87 1408.25C1098.52 1387.59 1110.13 1359.58 1110.13 1330.38C1110.13 1289.74 1087.99 1254.88 1055.06 1235.72V803.867L1223.72 972.469C1219.51 988.745 1219.08 1005.77 1222.46 1022.24C1225.85 1038.71 1232.97 1054.18 1243.27 1067.47C1253.56 1080.76 1266.77 1091.52 1281.87 1098.91C1296.97 1106.3 1313.56 1110.14 1330.38 1110.13C1359.57 1110.11 1387.57 1098.5 1408.21 1077.85C1428.85 1057.2 1440.45 1029.2 1440.45 1000C1440.47 983.182 1436.64 966.583 1429.25 951.476C1421.86 936.369 1411.1 923.157 1397.81 912.853C1384.52 902.55 1369.04 895.429 1352.57 892.037C1336.1 888.646 1319.07 889.074 1302.79 893.289L1106.66 697.156C1110.87 680.88 1111.3 663.854 1107.91 647.386C1104.52 630.918 1097.41 615.446 1087.11 602.155C1076.81 588.864 1063.61 578.11 1048.51 570.716C1033.41 563.321 1016.81 559.485 1000 559.5C990.16 559.334 980.344 560.501 970.817 562.969L874.458 466.61L1000 340.957Z" fill="#E57EDB"></path>
</svg><style>@media (prefers-color-scheme: light) { :root { filter: none; } }
</style></svg>