<svg width="2000" height="2000" viewBox="0 0 2000 2000" fill="none" xmlns="http://www.w3.org/2000/svg">
<rect width="2000" height="2000" rx="400" fill="#151515"/>
<path d="M481.091 370.715C418.504 370.715 358.481 395.577 314.226 439.832C269.971 484.087 245.108 544.111 245.108 606.697V1393.3C245.108 1455.89 269.971 1515.91 314.226 1560.17C358.481 1604.42 418.504 1629.29 481.091 1629.29H1519.16C1581.75 1629.29 1641.77 1604.42 1686.02 1560.17C1730.28 1515.91 1755.14 1455.89 1755.14 1393.3V606.697C1755.14 544.111 1730.28 484.087 1686.02 439.832C1641.77 395.577 1581.75 370.715 1519.16 370.715H481.091ZM339.501 606.697C339.501 569.145 354.419 533.131 380.972 506.578C407.525 480.025 443.539 465.108 481.091 465.108H1519.16C1556.71 465.108 1592.73 480.025 1619.28 506.578C1645.83 533.131 1660.75 569.145 1660.75 606.697V1393.3C1660.75 1430.86 1645.83 1466.87 1619.28 1493.42C1592.73 1519.98 1556.71 1534.89 1519.16 1534.89H481.153C443.602 1534.89 407.588 1519.98 381.035 1493.42C354.482 1466.87 339.564 1430.86 339.564 1393.3V606.697H339.501ZM748.285 764.081V1236.05C748.292 1246.92 751.115 1257.6 756.48 1267.06C761.844 1276.52 769.568 1284.42 778.897 1290C788.226 1295.59 798.842 1298.66 809.711 1298.92C820.58 1299.18 831.331 1296.62 840.916 1291.49L1281.42 1055.5C1291.44 1050.12 1299.81 1042.13 1305.65 1032.36C1311.49 1022.6 1314.57 1011.44 1314.57 1000.06C1314.57 988.689 1311.49 977.527 1305.65 967.765C1299.81 958.002 1291.44 950.005 1281.42 944.624L840.916 708.641C831.336 703.512 820.591 700.951 809.727 701.208C798.863 701.465 788.251 704.53 778.924 710.106C769.596 715.682 761.872 723.579 756.503 733.027C751.134 742.474 748.303 753.152 748.285 764.018V764.081Z" fill="#E57EDB"/>
</svg>
